<svg xmlns="http://www.w3.org/2000/svg" xmlns:xlink="http://www.w3.org/1999/xlink" width= "1318.2156281339742" height="304.8609442038078" viewBox="-40 -145.4304721019039 1318.2156281339742 304.8609442038078">
<line x1="0" y1="41.60000000000001" x2="0" y2="-86.39999999999999" stroke-width="1" stroke-dasharray="none" stroke="rgb(0, 0, 0)"/>
<line x1="1.9331820449317627" y1="41.60000000000001" x2="1.9331820449317627" y2="-86.39999999999999" stroke-width="1" stroke-dasharray="1" stroke="rgb(0, 0, 0)"/>
<line x1="77.5958761790857" y1="86.4" x2="77.5958761790857" y2="-41.60000000000001" stroke-width="1" stroke-dasharray="none" stroke="rgb(0, 0, 0)"/>
<line x1="79.52905822401748" y1="86.4" x2="79.52905822401748" y2="-41.60000000000001" stroke-width="1" stroke-dasharray="none" stroke="rgb(0, 0, 0)"/>
<line x1="0" y1="41.60000000000001" x2="77.5958761790857" y2="86.4" stroke-width="1" stroke-dasharray="none" stroke="rgb(0, 0, 0)"/>
<line x1="0" y1="-86.39999999999999" x2="77.5958761790857" y2="-41.60000000000001" stroke-width="1" stroke-dasharray="none" stroke="rgb(0, 0, 0)"/>
<line x1="1.9331820449317627" y1="41.60000000000001" x2="79.52905822401748" y2="86.4" stroke-width="1" stroke-dasharray="1" stroke="rgb(0, 0, 0)"/>
<line x1="1.9331820449317627" y1="-86.39999999999999" x2="79.52905822401748" y2="-41.60000000000001" stroke-width="1" stroke-dasharray="none" stroke="rgb(0, 0, 0)"/>
<line x1="0" y1="41.60000000000001" x2="1.9331820449317627" y2="41.60000000000001" stroke-width="1" stroke-dasharray="1" stroke="rgb(0, 0, 0)"/>
<line x1="77.5958761790857" y1="86.4" x2="79.52905822401748" y2="86.4" stroke-width="1" stroke-dasharray="none" stroke="rgb(0, 0, 0)"/>
<line x1="0" y1="-86.39999999999999" x2="1.9331820449317627" y2="-86.39999999999999" stroke-width="1" stroke-dasharray="none" stroke="rgb(0, 0, 0)"/>
<line x1="77.5958761790857" y1="-41.60000000000001" x2="79.52905822401748" y2="-41.60000000000001" stroke-width="1" stroke-dasharray="none" stroke="rgb(0, 0, 0)"/>
<text x="39.76452911200874" y="-96.39999999999999" font-family="arial" font-size="14px" text-anchor="middle" fill="rgb(0, 0, 0)">128x128x3</text>
<line x1="129.5290582240175" y1="41.60000000000001" x2="129.5290582240175" y2="-86.39999999999999" stroke-width="1" stroke-dasharray="none" stroke="rgb(0, 0, 0)"/>
<line x1="137.5290582240175" y1="41.60000000000001" x2="137.5290582240175" y2="-86.39999999999999" stroke-width="1" stroke-dasharray="1" stroke="rgb(0, 0, 0)"/>
<line x1="207.1249344031032" y1="86.4" x2="207.1249344031032" y2="-41.60000000000001" stroke-width="1" stroke-dasharray="none" stroke="rgb(0, 0, 0)"/>
<line x1="215.1249344031032" y1="86.4" x2="215.1249344031032" y2="-41.60000000000001" stroke-width="1" stroke-dasharray="none" stroke="rgb(0, 0, 0)"/>
<line x1="129.5290582240175" y1="41.60000000000001" x2="207.1249344031032" y2="86.4" stroke-width="1" stroke-dasharray="none" stroke="rgb(0, 0, 0)"/>
<line x1="129.5290582240175" y1="-86.39999999999999" x2="207.1249344031032" y2="-41.60000000000001" stroke-width="1" stroke-dasharray="none" stroke="rgb(0, 0, 0)"/>
<line x1="137.5290582240175" y1="41.60000000000001" x2="215.1249344031032" y2="86.4" stroke-width="1" stroke-dasharray="1" stroke="rgb(0, 0, 0)"/>
<line x1="137.5290582240175" y1="-86.39999999999999" x2="215.1249344031032" y2="-41.60000000000001" stroke-width="1" stroke-dasharray="none" stroke="rgb(0, 0, 0)"/>
<line x1="129.5290582240175" y1="41.60000000000001" x2="137.5290582240175" y2="41.60000000000001" stroke-width="1" stroke-dasharray="1" stroke="rgb(0, 0, 0)"/>
<line x1="207.1249344031032" y1="86.4" x2="215.1249344031032" y2="86.4" stroke-width="1" stroke-dasharray="none" stroke="rgb(0, 0, 0)"/>
<line x1="129.5290582240175" y1="-86.39999999999999" x2="137.5290582240175" y2="-86.39999999999999" stroke-width="1" stroke-dasharray="none" stroke="rgb(0, 0, 0)"/>
<line x1="207.1249344031032" y1="-41.60000000000001" x2="215.1249344031032" y2="-41.60000000000001" stroke-width="1" stroke-dasharray="none" stroke="rgb(0, 0, 0)"/>
<text x="172.32699631356036" y="-96.39999999999999" font-family="arial" font-size="14px" text-anchor="middle" fill="rgb(0, 0, 0)">128x128x32</text>
<line x1="265.1249344031032" y1="20.800000000000004" x2="265.1249344031032" y2="-43.199999999999996" stroke-width="1" stroke-dasharray="none" stroke="rgb(0, 0, 0)"/>
<line x1="273.1249344031032" y1="20.800000000000004" x2="273.1249344031032" y2="-43.199999999999996" stroke-width="1" stroke-dasharray="1" stroke="rgb(0, 0, 0)"/>
<line x1="303.9228724926461" y1="43.2" x2="303.9228724926461" y2="-20.800000000000004" stroke-width="1" stroke-dasharray="none" stroke="rgb(0, 0, 0)"/>
<line x1="311.9228724926461" y1="43.2" x2="311.9228724926461" y2="-20.800000000000004" stroke-width="1" stroke-dasharray="none" stroke="rgb(0, 0, 0)"/>
<line x1="265.1249344031032" y1="20.800000000000004" x2="303.9228724926461" y2="43.2" stroke-width="1" stroke-dasharray="none" stroke="rgb(0, 0, 0)"/>
<line x1="265.1249344031032" y1="-43.199999999999996" x2="303.9228724926461" y2="-20.800000000000004" stroke-width="1" stroke-dasharray="none" stroke="rgb(0, 0, 0)"/>
<line x1="273.1249344031032" y1="20.800000000000004" x2="311.9228724926461" y2="43.2" stroke-width="1" stroke-dasharray="1" stroke="rgb(0, 0, 0)"/>
<line x1="273.1249344031032" y1="-43.199999999999996" x2="311.9228724926461" y2="-20.800000000000004" stroke-width="1" stroke-dasharray="none" stroke="rgb(0, 0, 0)"/>
<line x1="265.1249344031032" y1="20.800000000000004" x2="273.1249344031032" y2="20.800000000000004" stroke-width="1" stroke-dasharray="1" stroke="rgb(0, 0, 0)"/>
<line x1="303.9228724926461" y1="43.2" x2="311.9228724926461" y2="43.2" stroke-width="1" stroke-dasharray="none" stroke="rgb(0, 0, 0)"/>
<line x1="265.1249344031032" y1="-43.199999999999996" x2="273.1249344031032" y2="-43.199999999999996" stroke-width="1" stroke-dasharray="none" stroke="rgb(0, 0, 0)"/>
<line x1="303.9228724926461" y1="-20.800000000000004" x2="311.9228724926461" y2="-20.800000000000004" stroke-width="1" stroke-dasharray="none" stroke="rgb(0, 0, 0)"/>
<text x="288.52390344787466" y="-53.199999999999996" font-family="arial" font-size="14px" text-anchor="middle" fill="rgb(0, 0, 0)">64x64x32</text>
<line x1="361.9228724926461" y1="20.800000000000004" x2="361.9228724926461" y2="-43.199999999999996" stroke-width="1" stroke-dasharray="none" stroke="rgb(0, 0, 0)"/>
<line x1="374.0486050247293" y1="20.800000000000004" x2="374.0486050247293" y2="-43.199999999999996" stroke-width="1" stroke-dasharray="1" stroke="rgb(0, 0, 0)"/>
<line x1="400.72081058218896" y1="43.2" x2="400.72081058218896" y2="-20.800000000000004" stroke-width="1" stroke-dasharray="none" stroke="rgb(0, 0, 0)"/>
<line x1="412.84654311427215" y1="43.2" x2="412.84654311427215" y2="-20.800000000000004" stroke-width="1" stroke-dasharray="none" stroke="rgb(0, 0, 0)"/>
<line x1="361.9228724926461" y1="20.800000000000004" x2="400.72081058218896" y2="43.2" stroke-width="1" stroke-dasharray="none" stroke="rgb(0, 0, 0)"/>
<line x1="361.9228724926461" y1="-43.199999999999996" x2="400.72081058218896" y2="-20.800000000000004" stroke-width="1" stroke-dasharray="none" stroke="rgb(0, 0, 0)"/>
<line x1="374.0486050247293" y1="20.800000000000004" x2="412.84654311427215" y2="43.2" stroke-width="1" stroke-dasharray="1" stroke="rgb(0, 0, 0)"/>
<line x1="374.0486050247293" y1="-43.199999999999996" x2="412.84654311427215" y2="-20.800000000000004" stroke-width="1" stroke-dasharray="none" stroke="rgb(0, 0, 0)"/>
<line x1="361.9228724926461" y1="20.800000000000004" x2="374.0486050247293" y2="20.800000000000004" stroke-width="1" stroke-dasharray="1" stroke="rgb(0, 0, 0)"/>
<line x1="400.72081058218896" y1="43.2" x2="412.84654311427215" y2="43.2" stroke-width="1" stroke-dasharray="none" stroke="rgb(0, 0, 0)"/>
<line x1="361.9228724926461" y1="-43.199999999999996" x2="374.0486050247293" y2="-43.199999999999996" stroke-width="1" stroke-dasharray="none" stroke="rgb(0, 0, 0)"/>
<line x1="400.72081058218896" y1="-20.800000000000004" x2="412.84654311427215" y2="-20.800000000000004" stroke-width="1" stroke-dasharray="none" stroke="rgb(0, 0, 0)"/>
<text x="387.38470780345915" y="-53.199999999999996" font-family="arial" font-size="14px" text-anchor="middle" fill="rgb(0, 0, 0)">64x64x64</text>
<line x1="462.84654311427215" y1="10.400000000000002" x2="462.84654311427215" y2="-21.599999999999998" stroke-width="1" stroke-dasharray="none" stroke="rgb(0, 0, 0)"/>
<line x1="474.97227564635534" y1="10.400000000000002" x2="474.97227564635534" y2="-21.599999999999998" stroke-width="1" stroke-dasharray="1" stroke="rgb(0, 0, 0)"/>
<line x1="482.2455121590436" y1="21.6" x2="482.2455121590436" y2="-10.400000000000002" stroke-width="1" stroke-dasharray="none" stroke="rgb(0, 0, 0)"/>
<line x1="494.3712446911268" y1="21.6" x2="494.3712446911268" y2="-10.400000000000002" stroke-width="1" stroke-dasharray="none" stroke="rgb(0, 0, 0)"/>
<line x1="462.84654311427215" y1="10.400000000000002" x2="482.2455121590436" y2="21.6" stroke-width="1" stroke-dasharray="none" stroke="rgb(0, 0, 0)"/>
<line x1="462.84654311427215" y1="-21.599999999999998" x2="482.2455121590436" y2="-10.400000000000002" stroke-width="1" stroke-dasharray="none" stroke="rgb(0, 0, 0)"/>
<line x1="474.97227564635534" y1="10.400000000000002" x2="494.3712446911268" y2="21.6" stroke-width="1" stroke-dasharray="1" stroke="rgb(0, 0, 0)"/>
<line x1="474.97227564635534" y1="-21.599999999999998" x2="494.3712446911268" y2="-10.400000000000002" stroke-width="1" stroke-dasharray="none" stroke="rgb(0, 0, 0)"/>
<line x1="462.84654311427215" y1="10.400000000000002" x2="474.97227564635534" y2="10.400000000000002" stroke-width="1" stroke-dasharray="1" stroke="rgb(0, 0, 0)"/>
<line x1="482.2455121590436" y1="21.6" x2="494.3712446911268" y2="21.6" stroke-width="1" stroke-dasharray="none" stroke="rgb(0, 0, 0)"/>
<line x1="462.84654311427215" y1="-21.599999999999998" x2="474.97227564635534" y2="-21.599999999999998" stroke-width="1" stroke-dasharray="none" stroke="rgb(0, 0, 0)"/>
<line x1="482.2455121590436" y1="-10.400000000000002" x2="494.3712446911268" y2="-10.400000000000002" stroke-width="1" stroke-dasharray="none" stroke="rgb(0, 0, 0)"/>
<text x="478.6088939026995" y="-31.599999999999998" font-family="arial" font-size="14px" text-anchor="middle" fill="rgb(0, 0, 0)">32x32x64</text>
<line x1="544.3712446911268" y1="10.400000000000002" x2="544.3712446911268" y2="-21.599999999999998" stroke-width="1" stroke-dasharray="none" stroke="rgb(0, 0, 0)"/>
<line x1="562.7504183710794" y1="10.400000000000002" x2="562.7504183710794" y2="-21.599999999999998" stroke-width="1" stroke-dasharray="1" stroke="rgb(0, 0, 0)"/>
<line x1="563.7702137358982" y1="21.6" x2="563.7702137358982" y2="-10.400000000000002" stroke-width="1" stroke-dasharray="none" stroke="rgb(0, 0, 0)"/>
<line x1="582.1493874158508" y1="21.6" x2="582.1493874158508" y2="-10.400000000000002" stroke-width="1" stroke-dasharray="none" stroke="rgb(0, 0, 0)"/>
<line x1="544.3712446911268" y1="10.400000000000002" x2="563.7702137358982" y2="21.6" stroke-width="1" stroke-dasharray="none" stroke="rgb(0, 0, 0)"/>
<line x1="544.3712446911268" y1="-21.599999999999998" x2="563.7702137358982" y2="-10.400000000000002" stroke-width="1" stroke-dasharray="none" stroke="rgb(0, 0, 0)"/>
<line x1="562.7504183710794" y1="10.400000000000002" x2="582.1493874158508" y2="21.6" stroke-width="1" stroke-dasharray="1" stroke="rgb(0, 0, 0)"/>
<line x1="562.7504183710794" y1="-21.599999999999998" x2="582.1493874158508" y2="-10.400000000000002" stroke-width="1" stroke-dasharray="none" stroke="rgb(0, 0, 0)"/>
<line x1="544.3712446911268" y1="10.400000000000002" x2="562.7504183710794" y2="10.400000000000002" stroke-width="1" stroke-dasharray="1" stroke="rgb(0, 0, 0)"/>
<line x1="563.7702137358982" y1="21.6" x2="582.1493874158508" y2="21.6" stroke-width="1" stroke-dasharray="none" stroke="rgb(0, 0, 0)"/>
<line x1="544.3712446911268" y1="-21.599999999999998" x2="562.7504183710794" y2="-21.599999999999998" stroke-width="1" stroke-dasharray="none" stroke="rgb(0, 0, 0)"/>
<line x1="563.7702137358982" y1="-10.400000000000002" x2="582.1493874158508" y2="-10.400000000000002" stroke-width="1" stroke-dasharray="none" stroke="rgb(0, 0, 0)"/>
<text x="563.2603160534889" y="-31.599999999999998" font-family="arial" font-size="14px" text-anchor="middle" fill="rgb(0, 0, 0)">32x32x128</text>
<line x1="632.1493874158508" y1="5.200000000000001" x2="632.1493874158508" y2="-10.799999999999999" stroke-width="1" stroke-dasharray="none" stroke="rgb(0, 0, 0)"/>
<line x1="650.5285610958034" y1="5.200000000000001" x2="650.5285610958034" y2="-10.799999999999999" stroke-width="1" stroke-dasharray="1" stroke="rgb(0, 0, 0)"/>
<line x1="641.8488719382365" y1="10.8" x2="641.8488719382365" y2="-5.200000000000001" stroke-width="1" stroke-dasharray="none" stroke="rgb(0, 0, 0)"/>
<line x1="660.2280456181891" y1="10.8" x2="660.2280456181891" y2="-5.200000000000001" stroke-width="1" stroke-dasharray="none" stroke="rgb(0, 0, 0)"/>
<line x1="632.1493874158508" y1="5.200000000000001" x2="641.8488719382365" y2="10.8" stroke-width="1" stroke-dasharray="none" stroke="rgb(0, 0, 0)"/>
<line x1="632.1493874158508" y1="-10.799999999999999" x2="641.8488719382365" y2="-5.200000000000001" stroke-width="1" stroke-dasharray="none" stroke="rgb(0, 0, 0)"/>
<line x1="650.5285610958034" y1="5.200000000000001" x2="660.2280456181891" y2="10.8" stroke-width="1" stroke-dasharray="1" stroke="rgb(0, 0, 0)"/>
<line x1="650.5285610958034" y1="-10.799999999999999" x2="660.2280456181891" y2="-5.200000000000001" stroke-width="1" stroke-dasharray="none" stroke="rgb(0, 0, 0)"/>
<line x1="632.1493874158508" y1="5.200000000000001" x2="650.5285610958034" y2="5.200000000000001" stroke-width="1" stroke-dasharray="1" stroke="rgb(0, 0, 0)"/>
<line x1="641.8488719382365" y1="10.8" x2="660.2280456181891" y2="10.8" stroke-width="1" stroke-dasharray="none" stroke="rgb(0, 0, 0)"/>
<line x1="632.1493874158508" y1="-10.799999999999999" x2="650.5285610958034" y2="-10.799999999999999" stroke-width="1" stroke-dasharray="none" stroke="rgb(0, 0, 0)"/>
<line x1="641.8488719382365" y1="-5.200000000000001" x2="660.2280456181891" y2="-5.200000000000001" stroke-width="1" stroke-dasharray="none" stroke="rgb(0, 0, 0)"/>
<text x="646.1887165170199" y="-20.799999999999997" font-family="arial" font-size="14px" text-anchor="middle" fill="rgb(0, 0, 0)">16x16x128</text>
<line x1="710.2280456181891" y1="5.200000000000001" x2="710.2280456181891" y2="-10.799999999999999" stroke-width="1" stroke-dasharray="none" stroke="rgb(0, 0, 0)"/>
<line x1="738.085663643665" y1="5.200000000000001" x2="738.085663643665" y2="-10.799999999999999" stroke-width="1" stroke-dasharray="1" stroke="rgb(0, 0, 0)"/>
<line x1="719.9275301405747" y1="10.8" x2="719.9275301405747" y2="-5.200000000000001" stroke-width="1" stroke-dasharray="none" stroke="rgb(0, 0, 0)"/>
<line x1="747.7851481660507" y1="10.8" x2="747.7851481660507" y2="-5.200000000000001" stroke-width="1" stroke-dasharray="none" stroke="rgb(0, 0, 0)"/>
<line x1="710.2280456181891" y1="5.200000000000001" x2="719.9275301405747" y2="10.8" stroke-width="1" stroke-dasharray="none" stroke="rgb(0, 0, 0)"/>
<line x1="710.2280456181891" y1="-10.799999999999999" x2="719.9275301405747" y2="-5.200000000000001" stroke-width="1" stroke-dasharray="none" stroke="rgb(0, 0, 0)"/>
<line x1="738.085663643665" y1="5.200000000000001" x2="747.7851481660507" y2="10.8" stroke-width="1" stroke-dasharray="1" stroke="rgb(0, 0, 0)"/>
<line x1="738.085663643665" y1="-10.799999999999999" x2="747.7851481660507" y2="-5.200000000000001" stroke-width="1" stroke-dasharray="none" stroke="rgb(0, 0, 0)"/>
<line x1="710.2280456181891" y1="5.200000000000001" x2="738.085663643665" y2="5.200000000000001" stroke-width="1" stroke-dasharray="1" stroke="rgb(0, 0, 0)"/>
<line x1="719.9275301405747" y1="10.8" x2="747.7851481660507" y2="10.8" stroke-width="1" stroke-dasharray="none" stroke="rgb(0, 0, 0)"/>
<line x1="710.2280456181891" y1="-10.799999999999999" x2="738.085663643665" y2="-10.799999999999999" stroke-width="1" stroke-dasharray="none" stroke="rgb(0, 0, 0)"/>
<line x1="719.9275301405747" y1="-5.200000000000001" x2="747.7851481660507" y2="-5.200000000000001" stroke-width="1" stroke-dasharray="none" stroke="rgb(0, 0, 0)"/>
<text x="729.0065968921199" y="-20.799999999999997" font-family="arial" font-size="14px" text-anchor="middle" fill="rgb(0, 0, 0)">16x16x256</text>
<line x1="797.7851481660507" y1="2.6000000000000005" x2="797.7851481660507" y2="-5.3999999999999995" stroke-width="1" stroke-dasharray="none" stroke="rgb(0, 0, 0)"/>
<line x1="825.6427661915267" y1="2.6000000000000005" x2="825.6427661915267" y2="-5.3999999999999995" stroke-width="1" stroke-dasharray="1" stroke="rgb(0, 0, 0)"/>
<line x1="802.6348904272436" y1="5.4" x2="802.6348904272436" y2="-2.6000000000000005" stroke-width="1" stroke-dasharray="none" stroke="rgb(0, 0, 0)"/>
<line x1="830.4925084527196" y1="5.4" x2="830.4925084527196" y2="-2.6000000000000005" stroke-width="1" stroke-dasharray="none" stroke="rgb(0, 0, 0)"/>
<line x1="797.7851481660507" y1="2.6000000000000005" x2="802.6348904272436" y2="5.4" stroke-width="1" stroke-dasharray="none" stroke="rgb(0, 0, 0)"/>
<line x1="797.7851481660507" y1="-5.3999999999999995" x2="802.6348904272436" y2="-2.6000000000000005" stroke-width="1" stroke-dasharray="none" stroke="rgb(0, 0, 0)"/>
<line x1="825.6427661915267" y1="2.6000000000000005" x2="830.4925084527196" y2="5.4" stroke-width="1" stroke-dasharray="1" stroke="rgb(0, 0, 0)"/>
<line x1="825.6427661915267" y1="-5.3999999999999995" x2="830.4925084527196" y2="-2.6000000000000005" stroke-width="1" stroke-dasharray="none" stroke="rgb(0, 0, 0)"/>
<line x1="797.7851481660507" y1="2.6000000000000005" x2="825.6427661915267" y2="2.6000000000000005" stroke-width="1" stroke-dasharray="1" stroke="rgb(0, 0, 0)"/>
<line x1="802.6348904272436" y1="5.4" x2="830.4925084527196" y2="5.4" stroke-width="1" stroke-dasharray="none" stroke="rgb(0, 0, 0)"/>
<line x1="797.7851481660507" y1="-5.3999999999999995" x2="825.6427661915267" y2="-5.3999999999999995" stroke-width="1" stroke-dasharray="none" stroke="rgb(0, 0, 0)"/>
<line x1="802.6348904272436" y1="-2.6000000000000005" x2="830.4925084527196" y2="-2.6000000000000005" stroke-width="1" stroke-dasharray="none" stroke="rgb(0, 0, 0)"/>
<text x="814.1388283093852" y="-15.399999999999999" font-family="arial" font-size="14px" text-anchor="middle" fill="rgb(0, 0, 0)">8x8x256</text>
<line x1="880.4925084527196" y1="2.6000000000000005" x2="880.4925084527196" y2="-5.3999999999999995" stroke-width="1" stroke-dasharray="none" stroke="rgb(0, 0, 0)"/>
<line x1="922.7167615974522" y1="2.6000000000000005" x2="922.7167615974522" y2="-5.3999999999999995" stroke-width="1" stroke-dasharray="1" stroke="rgb(0, 0, 0)"/>
<line x1="885.3422507139124" y1="5.4" x2="885.3422507139124" y2="-2.6000000000000005" stroke-width="1" stroke-dasharray="none" stroke="rgb(0, 0, 0)"/>
<line x1="927.566503858645" y1="5.4" x2="927.566503858645" y2="-2.6000000000000005" stroke-width="1" stroke-dasharray="none" stroke="rgb(0, 0, 0)"/>
<line x1="880.4925084527196" y1="2.6000000000000005" x2="885.3422507139124" y2="5.4" stroke-width="1" stroke-dasharray="none" stroke="rgb(0, 0, 0)"/>
<line x1="880.4925084527196" y1="-5.3999999999999995" x2="885.3422507139124" y2="-2.6000000000000005" stroke-width="1" stroke-dasharray="none" stroke="rgb(0, 0, 0)"/>
<line x1="922.7167615974522" y1="2.6000000000000005" x2="927.566503858645" y2="5.4" stroke-width="1" stroke-dasharray="1" stroke="rgb(0, 0, 0)"/>
<line x1="922.7167615974522" y1="-5.3999999999999995" x2="927.566503858645" y2="-2.6000000000000005" stroke-width="1" stroke-dasharray="none" stroke="rgb(0, 0, 0)"/>
<line x1="880.4925084527196" y1="2.6000000000000005" x2="922.7167615974522" y2="2.6000000000000005" stroke-width="1" stroke-dasharray="1" stroke="rgb(0, 0, 0)"/>
<line x1="885.3422507139124" y1="5.4" x2="927.566503858645" y2="5.4" stroke-width="1" stroke-dasharray="none" stroke="rgb(0, 0, 0)"/>
<line x1="880.4925084527196" y1="-5.3999999999999995" x2="922.7167615974522" y2="-5.3999999999999995" stroke-width="1" stroke-dasharray="none" stroke="rgb(0, 0, 0)"/>
<line x1="885.3422507139124" y1="-2.6000000000000005" x2="927.566503858645" y2="-2.6000000000000005" stroke-width="1" stroke-dasharray="none" stroke="rgb(0, 0, 0)"/>
<text x="904.0295061556824" y="-15.399999999999999" font-family="arial" font-size="14px" text-anchor="middle" fill="rgb(0, 0, 0)">8x8x512</text>
<line x1="977.5665038586451" y1="1.3000000000000003" x2="977.5665038586451" y2="-2.6999999999999997" stroke-width="1" stroke-dasharray="none" stroke="rgb(0, 0, 0)"/>
<line x1="1019.7907570033777" y1="1.3000000000000003" x2="1019.7907570033777" y2="-2.6999999999999997" stroke-width="1" stroke-dasharray="1" stroke="rgb(0, 0, 0)"/>
<line x1="979.9913749892415" y1="2.7" x2="979.9913749892415" y2="-1.3000000000000003" stroke-width="1" stroke-dasharray="none" stroke="rgb(0, 0, 0)"/>
<line x1="1022.2156281339742" y1="2.7" x2="1022.2156281339742" y2="-1.3000000000000003" stroke-width="1" stroke-dasharray="none" stroke="rgb(0, 0, 0)"/>
<line x1="977.5665038586451" y1="1.3000000000000003" x2="979.9913749892415" y2="2.7" stroke-width="1" stroke-dasharray="none" stroke="rgb(0, 0, 0)"/>
<line x1="977.5665038586451" y1="-2.6999999999999997" x2="979.9913749892415" y2="-1.3000000000000003" stroke-width="1" stroke-dasharray="none" stroke="rgb(0, 0, 0)"/>
<line x1="1019.7907570033777" y1="1.3000000000000003" x2="1022.2156281339742" y2="2.7" stroke-width="1" stroke-dasharray="1" stroke="rgb(0, 0, 0)"/>
<line x1="1019.7907570033777" y1="-2.6999999999999997" x2="1022.2156281339742" y2="-1.3000000000000003" stroke-width="1" stroke-dasharray="none" stroke="rgb(0, 0, 0)"/>
<line x1="977.5665038586451" y1="1.3000000000000003" x2="1019.7907570033777" y2="1.3000000000000003" stroke-width="1" stroke-dasharray="1" stroke="rgb(0, 0, 0)"/>
<line x1="979.9913749892415" y1="2.7" x2="1022.2156281339742" y2="2.7" stroke-width="1" stroke-dasharray="none" stroke="rgb(0, 0, 0)"/>
<line x1="977.5665038586451" y1="-2.6999999999999997" x2="1019.7907570033777" y2="-2.6999999999999997" stroke-width="1" stroke-dasharray="none" stroke="rgb(0, 0, 0)"/>
<line x1="979.9913749892415" y1="-1.3000000000000003" x2="1022.2156281339742" y2="-1.3000000000000003" stroke-width="1" stroke-dasharray="none" stroke="rgb(0, 0, 0)"/>
<text x="999.8910659963096" y="-12.7" font-family="arial" font-size="14px" text-anchor="middle" fill="rgb(0, 0, 0)">4x4x512</text>
<line x1="1072.2156281339742" y1="-111.43047210190387" x2="1072.2156281339742" y2="111.43047210190387" stroke-width="1" stroke-dasharray="none" stroke="rgb(0, 0, 0)"/>
<line x1="1072.2156281339742" y1="111.43047210190387" x2="1076.2156281339742" y2="111.43047210190387" stroke-width="1" stroke-dasharray="none" stroke="rgb(0, 0, 0)"/>
<line x1="1076.2156281339742" y1="111.43047210190387" x2="1076.2156281339742" y2="-111.43047210190387" stroke-width="1" stroke-dasharray="none" stroke="rgb(0, 0, 0)"/>
<line x1="1076.2156281339742" y1="-111.43047210190387" x2="1072.2156281339742" y2="-111.43047210190387" stroke-width="1" stroke-dasharray="none" stroke="rgb(0, 0, 0)"/>
<text x="1074.2156281339742" y="-121.43047210190387" font-family="arial" font-size="14px" text-anchor="middle" fill="rgb(0, 0, 0)">8192</text>
<line x1="1126.2156281339742" y1="-31.999999999999996" x2="1126.2156281339742" y2="31.999999999999996" stroke-width="1" stroke-dasharray="none" stroke="rgb(0, 0, 0)"/>
<line x1="1126.2156281339742" y1="31.999999999999996" x2="1130.2156281339742" y2="31.999999999999996" stroke-width="1" stroke-dasharray="none" stroke="rgb(0, 0, 0)"/>
<line x1="1130.2156281339742" y1="31.999999999999996" x2="1130.2156281339742" y2="-31.999999999999996" stroke-width="1" stroke-dasharray="none" stroke="rgb(0, 0, 0)"/>
<line x1="1130.2156281339742" y1="-31.999999999999996" x2="1126.2156281339742" y2="-31.999999999999996" stroke-width="1" stroke-dasharray="none" stroke="rgb(0, 0, 0)"/>
<text x="1128.2156281339742" y="-42.0" font-family="arial" font-size="14px" text-anchor="middle" fill="rgb(0, 0, 0)">1024</text>
<line x1="1180.2156281339742" y1="-13.928809012737984" x2="1180.2156281339742" y2="13.928809012737984" stroke-width="1" stroke-dasharray="none" stroke="rgb(0, 0, 0)"/>
<line x1="1180.2156281339742" y1="13.928809012737984" x2="1184.2156281339742" y2="13.928809012737984" stroke-width="1" stroke-dasharray="none" stroke="rgb(0, 0, 0)"/>
<line x1="1184.2156281339742" y1="13.928809012737984" x2="1184.2156281339742" y2="-13.928809012737984" stroke-width="1" stroke-dasharray="none" stroke="rgb(0, 0, 0)"/>
<line x1="1184.2156281339742" y1="-13.928809012737984" x2="1180.2156281339742" y2="-13.928809012737984" stroke-width="1" stroke-dasharray="none" stroke="rgb(0, 0, 0)"/>
<text x="1182.2156281339742" y="-23.928809012737986" font-family="arial" font-size="14px" text-anchor="middle" fill="rgb(0, 0, 0)">256</text>
<line x1="1234.2156281339742" y1="-3.1067161936803713" x2="1234.2156281339742" y2="3.1067161936803713" stroke-width="1" stroke-dasharray="none" stroke="rgb(0, 0, 0)"/>
<line x1="1234.2156281339742" y1="3.1067161936803713" x2="1238.2156281339742" y2="3.1067161936803713" stroke-width="1" stroke-dasharray="none" stroke="rgb(0, 0, 0)"/>
<line x1="1238.2156281339742" y1="3.1067161936803713" x2="1238.2156281339742" y2="-3.1067161936803713" stroke-width="1" stroke-dasharray="none" stroke="rgb(0, 0, 0)"/>
<line x1="1238.2156281339742" y1="-3.1067161936803713" x2="1234.2156281339742" y2="-3.1067161936803713" stroke-width="1" stroke-dasharray="none" stroke="rgb(0, 0, 0)"/>
<text x="1236.2156281339742" y="-13.106716193680372" font-family="arial" font-size="14px" text-anchor="middle" fill="rgb(0, 0, 0)">21</text>
<line x1="38.79793808954285" y1="0.32500000000000007" x2="38.79793808954285" y2="-0.6749999999999999" stroke-width="1" stroke-dasharray="none" stroke="rgb(0, 0, 255)"/>
<line x1="40.731120134474615" y1="0.32500000000000007" x2="40.731120134474615" y2="-0.6749999999999999" stroke-width="1" stroke-dasharray="1" stroke="rgb(0, 0, 255)"/>
<line x1="39.40415587219196" y1="0.675" x2="39.40415587219196" y2="-0.32500000000000007" stroke-width="1" stroke-dasharray="none" stroke="rgb(0, 0, 255)"/>
<line x1="41.337337917123726" y1="0.675" x2="41.337337917123726" y2="-0.32500000000000007" stroke-width="1" stroke-dasharray="none" stroke="rgb(0, 0, 255)"/>
<line x1="38.79793808954285" y1="0.32500000000000007" x2="39.40415587219196" y2="0.675" stroke-width="1" stroke-dasharray="none" stroke="rgb(0, 0, 255)"/>
<line x1="38.79793808954285" y1="-0.6749999999999999" x2="39.40415587219196" y2="-0.32500000000000007" stroke-width="1" stroke-dasharray="none" stroke="rgb(0, 0, 255)"/>
<line x1="40.731120134474615" y1="0.32500000000000007" x2="41.337337917123726" y2="0.675" stroke-width="1" stroke-dasharray="1" stroke="rgb(0, 0, 255)"/>
<line x1="40.731120134474615" y1="-0.6749999999999999" x2="41.337337917123726" y2="-0.32500000000000007" stroke-width="1" stroke-dasharray="none" stroke="rgb(0, 0, 255)"/>
<line x1="38.79793808954285" y1="0.32500000000000007" x2="40.731120134474615" y2="0.32500000000000007" stroke-width="1" stroke-dasharray="1" stroke="rgb(0, 0, 255)"/>
<line x1="39.40415587219196" y1="0.675" x2="41.337337917123726" y2="0.675" stroke-width="1" stroke-dasharray="none" stroke="rgb(0, 0, 255)"/>
<line x1="38.79793808954285" y1="-0.6749999999999999" x2="40.731120134474615" y2="-0.6749999999999999" stroke-width="1" stroke-dasharray="none" stroke="rgb(0, 0, 255)"/>
<line x1="39.40415587219196" y1="-0.32500000000000007" x2="41.337337917123726" y2="-0.32500000000000007" stroke-width="1" stroke-dasharray="none" stroke="rgb(0, 0, 255)"/>
<line x1="40.731120134474615" y1="-0.675" x2="148.92802726878892" y2="-43.199999999999996" stroke-width="1" stroke-dasharray="none" stroke="rgb(0, 0, 255)"/>
<line x1="41.33733791712372" y1="0.6749999999999999" x2="148.92802726878892" y2="-43.199999999999996" stroke-width="1" stroke-dasharray="none" stroke="rgb(0, 0, 255)"/>
<text x="104.52905822401749" y="110.39999999999999" font-family="arial" font-size="14px" text-anchor="middle" fill="rgb(0, 0, 0)">conv1x1, 32</text>
<text x="104.52905822401749" y="124.39999999999999" font-family="arial" font-size="14px" text-anchor="middle" fill="rgb(0, 0, 0)">stride (1, 1)</text>
<line x1="168.32699631356036" y1="0.6500000000000001" x2="168.32699631356036" y2="-1.3499999999999999" stroke-width="1" stroke-dasharray="none" stroke="rgb(0, 0, 255)"/>
<line x1="176.32699631356036" y1="0.6500000000000001" x2="176.32699631356036" y2="-1.3499999999999999" stroke-width="1" stroke-dasharray="1" stroke="rgb(0, 0, 255)"/>
<line x1="169.53943187885858" y1="1.35" x2="169.53943187885858" y2="-0.6500000000000001" stroke-width="1" stroke-dasharray="none" stroke="rgb(0, 0, 255)"/>
<line x1="177.53943187885858" y1="1.35" x2="177.53943187885858" y2="-0.6500000000000001" stroke-width="1" stroke-dasharray="none" stroke="rgb(0, 0, 255)"/>
<line x1="168.32699631356036" y1="0.6500000000000001" x2="169.53943187885858" y2="1.35" stroke-width="1" stroke-dasharray="none" stroke="rgb(0, 0, 255)"/>
<line x1="168.32699631356036" y1="-1.3499999999999999" x2="169.53943187885858" y2="-0.6500000000000001" stroke-width="1" stroke-dasharray="none" stroke="rgb(0, 0, 255)"/>
<line x1="176.32699631356036" y1="0.6500000000000001" x2="177.53943187885858" y2="1.35" stroke-width="1" stroke-dasharray="1" stroke="rgb(0, 0, 255)"/>
<line x1="176.32699631356036" y1="-1.3499999999999999" x2="177.53943187885858" y2="-0.6500000000000001" stroke-width="1" stroke-dasharray="none" stroke="rgb(0, 0, 255)"/>
<line x1="168.32699631356036" y1="0.6500000000000001" x2="176.32699631356036" y2="0.6500000000000001" stroke-width="1" stroke-dasharray="1" stroke="rgb(0, 0, 255)"/>
<line x1="169.53943187885858" y1="1.35" x2="177.53943187885858" y2="1.35" stroke-width="1" stroke-dasharray="none" stroke="rgb(0, 0, 255)"/>
<line x1="168.32699631356036" y1="-1.3499999999999999" x2="176.32699631356036" y2="-1.3499999999999999" stroke-width="1" stroke-dasharray="none" stroke="rgb(0, 0, 255)"/>
<line x1="169.53943187885858" y1="-0.6500000000000001" x2="177.53943187885858" y2="-0.6500000000000001" stroke-width="1" stroke-dasharray="none" stroke="rgb(0, 0, 255)"/>
<line x1="176.32699631356036" y1="-1.35" x2="274.82441892548894" y2="-21.599999999999998" stroke-width="1" stroke-dasharray="none" stroke="rgb(0, 0, 255)"/>
<line x1="177.53943187885858" y1="1.3499999999999999" x2="274.82441892548894" y2="-21.599999999999998" stroke-width="1" stroke-dasharray="none" stroke="rgb(0, 0, 255)"/>
<text x="240.12493440310323" y="110.39999999999999" font-family="arial" font-size="14px" text-anchor="middle" fill="rgb(0, 0, 0)">maxpool2x2</text>
<text x="240.12493440310323" y="124.39999999999999" font-family="arial" font-size="14px" text-anchor="middle" fill="rgb(0, 0, 0)">stride (2, 2)</text>
<line x1="284.52390344787466" y1="0.32500000000000007" x2="284.52390344787466" y2="-0.6749999999999999" stroke-width="1" stroke-dasharray="none" stroke="rgb(0, 0, 255)"/>
<line x1="292.52390344787466" y1="0.32500000000000007" x2="292.52390344787466" y2="-0.6749999999999999" stroke-width="1" stroke-dasharray="1" stroke="rgb(0, 0, 255)"/>
<line x1="285.13012123052374" y1="0.675" x2="285.13012123052374" y2="-0.32500000000000007" stroke-width="1" stroke-dasharray="none" stroke="rgb(0, 0, 255)"/>
<line x1="293.13012123052374" y1="0.675" x2="293.13012123052374" y2="-0.32500000000000007" stroke-width="1" stroke-dasharray="none" stroke="rgb(0, 0, 255)"/>
<line x1="284.52390344787466" y1="0.32500000000000007" x2="285.13012123052374" y2="0.675" stroke-width="1" stroke-dasharray="none" stroke="rgb(0, 0, 255)"/>
<line x1="284.52390344787466" y1="-0.6749999999999999" x2="285.13012123052374" y2="-0.32500000000000007" stroke-width="1" stroke-dasharray="none" stroke="rgb(0, 0, 255)"/>
<line x1="292.52390344787466" y1="0.32500000000000007" x2="293.13012123052374" y2="0.675" stroke-width="1" stroke-dasharray="1" stroke="rgb(0, 0, 255)"/>
<line x1="292.52390344787466" y1="-0.6749999999999999" x2="293.13012123052374" y2="-0.32500000000000007" stroke-width="1" stroke-dasharray="none" stroke="rgb(0, 0, 255)"/>
<line x1="284.52390344787466" y1="0.32500000000000007" x2="292.52390344787466" y2="0.32500000000000007" stroke-width="1" stroke-dasharray="1" stroke="rgb(0, 0, 255)"/>
<line x1="285.13012123052374" y1="0.675" x2="293.13012123052374" y2="0.675" stroke-width="1" stroke-dasharray="none" stroke="rgb(0, 0, 255)"/>
<line x1="284.52390344787466" y1="-0.6749999999999999" x2="292.52390344787466" y2="-0.6749999999999999" stroke-width="1" stroke-dasharray="none" stroke="rgb(0, 0, 255)"/>
<line x1="285.13012123052374" y1="-0.32500000000000007" x2="293.13012123052374" y2="-0.32500000000000007" stroke-width="1" stroke-dasharray="none" stroke="rgb(0, 0, 255)"/>
<line x1="292.52390344787466" y1="-0.675" x2="371.6223570150318" y2="-21.599999999999998" stroke-width="1" stroke-dasharray="none" stroke="rgb(0, 0, 255)"/>
<line x1="293.13012123052374" y1="0.6749999999999999" x2="371.6223570150318" y2="-21.599999999999998" stroke-width="1" stroke-dasharray="none" stroke="rgb(0, 0, 255)"/>
<text x="336.9228724926461" y="67.19999999999999" font-family="arial" font-size="14px" text-anchor="middle" fill="rgb(0, 0, 0)">conv1x1, 64</text>
<text x="336.9228724926461" y="81.19999999999999" font-family="arial" font-size="14px" text-anchor="middle" fill="rgb(0, 0, 0)">stride (1, 1)</text>
<line x1="381.3218415374175" y1="0.6500000000000001" x2="381.3218415374175" y2="-1.3499999999999999" stroke-width="1" stroke-dasharray="none" stroke="rgb(0, 0, 255)"/>
<line x1="393.4475740695007" y1="0.6500000000000001" x2="393.4475740695007" y2="-1.3499999999999999" stroke-width="1" stroke-dasharray="1" stroke="rgb(0, 0, 255)"/>
<line x1="382.53427710271575" y1="1.35" x2="382.53427710271575" y2="-0.6500000000000001" stroke-width="1" stroke-dasharray="none" stroke="rgb(0, 0, 255)"/>
<line x1="394.66000963479894" y1="1.35" x2="394.66000963479894" y2="-0.6500000000000001" stroke-width="1" stroke-dasharray="none" stroke="rgb(0, 0, 255)"/>
<line x1="381.3218415374175" y1="0.6500000000000001" x2="382.53427710271575" y2="1.35" stroke-width="1" stroke-dasharray="none" stroke="rgb(0, 0, 255)"/>
<line x1="381.3218415374175" y1="-1.3499999999999999" x2="382.53427710271575" y2="-0.6500000000000001" stroke-width="1" stroke-dasharray="none" stroke="rgb(0, 0, 255)"/>
<line x1="393.4475740695007" y1="0.6500000000000001" x2="394.66000963479894" y2="1.35" stroke-width="1" stroke-dasharray="1" stroke="rgb(0, 0, 255)"/>
<line x1="393.4475740695007" y1="-1.3499999999999999" x2="394.66000963479894" y2="-0.6500000000000001" stroke-width="1" stroke-dasharray="none" stroke="rgb(0, 0, 255)"/>
<line x1="381.3218415374175" y1="0.6500000000000001" x2="393.4475740695007" y2="0.6500000000000001" stroke-width="1" stroke-dasharray="1" stroke="rgb(0, 0, 255)"/>
<line x1="382.53427710271575" y1="1.35" x2="394.66000963479894" y2="1.35" stroke-width="1" stroke-dasharray="none" stroke="rgb(0, 0, 255)"/>
<line x1="381.3218415374175" y1="-1.3499999999999999" x2="393.4475740695007" y2="-1.3499999999999999" stroke-width="1" stroke-dasharray="none" stroke="rgb(0, 0, 255)"/>
<line x1="382.53427710271575" y1="-0.6500000000000001" x2="394.66000963479894" y2="-0.6500000000000001" stroke-width="1" stroke-dasharray="none" stroke="rgb(0, 0, 255)"/>
<line x1="393.4475740695007" y1="-1.35" x2="467.696285375465" y2="-10.799999999999999" stroke-width="1" stroke-dasharray="none" stroke="rgb(0, 0, 255)"/>
<line x1="394.66000963479894" y1="1.3499999999999999" x2="467.696285375465" y2="-10.799999999999999" stroke-width="1" stroke-dasharray="none" stroke="rgb(0, 0, 255)"/>
<text x="437.84654311427215" y="67.19999999999999" font-family="arial" font-size="14px" text-anchor="middle" fill="rgb(0, 0, 0)">maxpool2x2</text>
<text x="437.84654311427215" y="81.19999999999999" font-family="arial" font-size="14px" text-anchor="middle" fill="rgb(0, 0, 0)">stride (2, 2)</text>
<line x1="472.54602763665787" y1="0.32500000000000007" x2="472.54602763665787" y2="-0.6749999999999999" stroke-width="1" stroke-dasharray="none" stroke="rgb(0, 0, 255)"/>
<line x1="484.67176016874106" y1="0.32500000000000007" x2="484.67176016874106" y2="-0.6749999999999999" stroke-width="1" stroke-dasharray="1" stroke="rgb(0, 0, 255)"/>
<line x1="473.15224541930695" y1="0.675" x2="473.15224541930695" y2="-0.32500000000000007" stroke-width="1" stroke-dasharray="none" stroke="rgb(0, 0, 255)"/>
<line x1="485.27797795139014" y1="0.675" x2="485.27797795139014" y2="-0.32500000000000007" stroke-width="1" stroke-dasharray="none" stroke="rgb(0, 0, 255)"/>
<line x1="472.54602763665787" y1="0.32500000000000007" x2="473.15224541930695" y2="0.675" stroke-width="1" stroke-dasharray="none" stroke="rgb(0, 0, 255)"/>
<line x1="472.54602763665787" y1="-0.6749999999999999" x2="473.15224541930695" y2="-0.32500000000000007" stroke-width="1" stroke-dasharray="none" stroke="rgb(0, 0, 255)"/>
<line x1="484.67176016874106" y1="0.32500000000000007" x2="485.27797795139014" y2="0.675" stroke-width="1" stroke-dasharray="1" stroke="rgb(0, 0, 255)"/>
<line x1="484.67176016874106" y1="-0.6749999999999999" x2="485.27797795139014" y2="-0.32500000000000007" stroke-width="1" stroke-dasharray="none" stroke="rgb(0, 0, 255)"/>
<line x1="472.54602763665787" y1="0.32500000000000007" x2="484.67176016874106" y2="0.32500000000000007" stroke-width="1" stroke-dasharray="1" stroke="rgb(0, 0, 255)"/>
<line x1="473.15224541930695" y1="0.675" x2="485.27797795139014" y2="0.675" stroke-width="1" stroke-dasharray="none" stroke="rgb(0, 0, 255)"/>
<line x1="472.54602763665787" y1="-0.6749999999999999" x2="484.67176016874106" y2="-0.6749999999999999" stroke-width="1" stroke-dasharray="none" stroke="rgb(0, 0, 255)"/>
<line x1="473.15224541930695" y1="-0.32500000000000007" x2="485.27797795139014" y2="-0.32500000000000007" stroke-width="1" stroke-dasharray="none" stroke="rgb(0, 0, 255)"/>
<line x1="484.67176016874106" y1="-0.675" x2="549.2209869523197" y2="-10.799999999999999" stroke-width="1" stroke-dasharray="none" stroke="rgb(0, 0, 255)"/>
<line x1="485.27797795139014" y1="0.6749999999999999" x2="549.2209869523197" y2="-10.799999999999999" stroke-width="1" stroke-dasharray="none" stroke="rgb(0, 0, 255)"/>
<text x="519.3712446911268" y="45.599999999999994" font-family="arial" font-size="14px" text-anchor="middle" fill="rgb(0, 0, 0)">conv1x1, 128</text>
<text x="519.3712446911268" y="59.599999999999994" font-family="arial" font-size="14px" text-anchor="middle" fill="rgb(0, 0, 0)">stride (1, 1)</text>
<line x1="554.0707292135124" y1="0.6500000000000001" x2="554.0707292135124" y2="-1.3499999999999999" stroke-width="1" stroke-dasharray="none" stroke="rgb(0, 0, 255)"/>
<line x1="572.449902893465" y1="0.6500000000000001" x2="572.449902893465" y2="-1.3499999999999999" stroke-width="1" stroke-dasharray="1" stroke="rgb(0, 0, 255)"/>
<line x1="555.2831647788106" y1="1.35" x2="555.2831647788106" y2="-0.6500000000000001" stroke-width="1" stroke-dasharray="none" stroke="rgb(0, 0, 255)"/>
<line x1="573.6623384587632" y1="1.35" x2="573.6623384587632" y2="-0.6500000000000001" stroke-width="1" stroke-dasharray="none" stroke="rgb(0, 0, 255)"/>
<line x1="554.0707292135124" y1="0.6500000000000001" x2="555.2831647788106" y2="1.35" stroke-width="1" stroke-dasharray="none" stroke="rgb(0, 0, 255)"/>
<line x1="554.0707292135124" y1="-1.3499999999999999" x2="555.2831647788106" y2="-0.6500000000000001" stroke-width="1" stroke-dasharray="none" stroke="rgb(0, 0, 255)"/>
<line x1="572.449902893465" y1="0.6500000000000001" x2="573.6623384587632" y2="1.35" stroke-width="1" stroke-dasharray="1" stroke="rgb(0, 0, 255)"/>
<line x1="572.449902893465" y1="-1.3499999999999999" x2="573.6623384587632" y2="-0.6500000000000001" stroke-width="1" stroke-dasharray="none" stroke="rgb(0, 0, 255)"/>
<line x1="554.0707292135124" y1="0.6500000000000001" x2="572.449902893465" y2="0.6500000000000001" stroke-width="1" stroke-dasharray="1" stroke="rgb(0, 0, 255)"/>
<line x1="555.2831647788106" y1="1.35" x2="573.6623384587632" y2="1.35" stroke-width="1" stroke-dasharray="none" stroke="rgb(0, 0, 255)"/>
<line x1="554.0707292135124" y1="-1.3499999999999999" x2="572.449902893465" y2="-1.3499999999999999" stroke-width="1" stroke-dasharray="none" stroke="rgb(0, 0, 255)"/>
<line x1="555.2831647788106" y1="-0.6500000000000001" x2="573.6623384587632" y2="-0.6500000000000001" stroke-width="1" stroke-dasharray="none" stroke="rgb(0, 0, 255)"/>
<line x1="572.449902893465" y1="-1.35" x2="634.5742585464473" y2="-5.3999999999999995" stroke-width="1" stroke-dasharray="none" stroke="rgb(0, 0, 255)"/>
<line x1="573.6623384587632" y1="1.3499999999999999" x2="634.5742585464473" y2="-5.3999999999999995" stroke-width="1" stroke-dasharray="none" stroke="rgb(0, 0, 255)"/>
<text x="607.1493874158508" y="45.599999999999994" font-family="arial" font-size="14px" text-anchor="middle" fill="rgb(0, 0, 0)">maxpool2x2</text>
<text x="607.1493874158508" y="59.599999999999994" font-family="arial" font-size="14px" text-anchor="middle" fill="rgb(0, 0, 0)">stride (2, 2)</text>
<line x1="636.9991296770437" y1="0.32500000000000007" x2="636.9991296770437" y2="-0.6749999999999999" stroke-width="1" stroke-dasharray="none" stroke="rgb(0, 0, 255)"/>
<line x1="655.3783033569963" y1="0.32500000000000007" x2="655.3783033569963" y2="-0.6749999999999999" stroke-width="1" stroke-dasharray="1" stroke="rgb(0, 0, 255)"/>
<line x1="637.6053474596928" y1="0.675" x2="637.6053474596928" y2="-0.32500000000000007" stroke-width="1" stroke-dasharray="none" stroke="rgb(0, 0, 255)"/>
<line x1="655.9845211396454" y1="0.675" x2="655.9845211396454" y2="-0.32500000000000007" stroke-width="1" stroke-dasharray="none" stroke="rgb(0, 0, 255)"/>
<line x1="636.9991296770437" y1="0.32500000000000007" x2="637.6053474596928" y2="0.675" stroke-width="1" stroke-dasharray="none" stroke="rgb(0, 0, 255)"/>
<line x1="636.9991296770437" y1="-0.6749999999999999" x2="637.6053474596928" y2="-0.32500000000000007" stroke-width="1" stroke-dasharray="none" stroke="rgb(0, 0, 255)"/>
<line x1="655.3783033569963" y1="0.32500000000000007" x2="655.9845211396454" y2="0.675" stroke-width="1" stroke-dasharray="1" stroke="rgb(0, 0, 255)"/>
<line x1="655.3783033569963" y1="-0.6749999999999999" x2="655.9845211396454" y2="-0.32500000000000007" stroke-width="1" stroke-dasharray="none" stroke="rgb(0, 0, 255)"/>
<line x1="636.9991296770437" y1="0.32500000000000007" x2="655.3783033569963" y2="0.32500000000000007" stroke-width="1" stroke-dasharray="1" stroke="rgb(0, 0, 255)"/>
<line x1="637.6053474596928" y1="0.675" x2="655.9845211396454" y2="0.675" stroke-width="1" stroke-dasharray="none" stroke="rgb(0, 0, 255)"/>
<line x1="636.9991296770437" y1="-0.6749999999999999" x2="655.3783033569963" y2="-0.6749999999999999" stroke-width="1" stroke-dasharray="none" stroke="rgb(0, 0, 255)"/>
<line x1="637.6053474596928" y1="-0.32500000000000007" x2="655.9845211396454" y2="-0.32500000000000007" stroke-width="1" stroke-dasharray="none" stroke="rgb(0, 0, 255)"/>
<line x1="655.3783033569963" y1="-0.675" x2="712.6529167487855" y2="-5.3999999999999995" stroke-width="1" stroke-dasharray="none" stroke="rgb(0, 0, 255)"/>
<line x1="655.9845211396454" y1="0.6749999999999999" x2="712.6529167487855" y2="-5.3999999999999995" stroke-width="1" stroke-dasharray="none" stroke="rgb(0, 0, 255)"/>
<text x="685.2280456181891" y="34.8" font-family="arial" font-size="14px" text-anchor="middle" fill="rgb(0, 0, 0)">conv1x1, 256</text>
<text x="685.2280456181891" y="48.8" font-family="arial" font-size="14px" text-anchor="middle" fill="rgb(0, 0, 0)">stride (1, 1)</text>
<line x1="715.077787879382" y1="0.6500000000000001" x2="715.077787879382" y2="-1.3499999999999999" stroke-width="1" stroke-dasharray="none" stroke="rgb(0, 0, 255)"/>
<line x1="742.9354059048579" y1="0.6500000000000001" x2="742.9354059048579" y2="-1.3499999999999999" stroke-width="1" stroke-dasharray="1" stroke="rgb(0, 0, 255)"/>
<line x1="716.2902234446801" y1="1.35" x2="716.2902234446801" y2="-0.6500000000000001" stroke-width="1" stroke-dasharray="none" stroke="rgb(0, 0, 255)"/>
<line x1="744.1478414701561" y1="1.35" x2="744.1478414701561" y2="-0.6500000000000001" stroke-width="1" stroke-dasharray="none" stroke="rgb(0, 0, 255)"/>
<line x1="715.077787879382" y1="0.6500000000000001" x2="716.2902234446801" y2="1.35" stroke-width="1" stroke-dasharray="none" stroke="rgb(0, 0, 255)"/>
<line x1="715.077787879382" y1="-1.3499999999999999" x2="716.2902234446801" y2="-0.6500000000000001" stroke-width="1" stroke-dasharray="none" stroke="rgb(0, 0, 255)"/>
<line x1="742.9354059048579" y1="0.6500000000000001" x2="744.1478414701561" y2="1.35" stroke-width="1" stroke-dasharray="1" stroke="rgb(0, 0, 255)"/>
<line x1="742.9354059048579" y1="-1.3499999999999999" x2="744.1478414701561" y2="-0.6500000000000001" stroke-width="1" stroke-dasharray="none" stroke="rgb(0, 0, 255)"/>
<line x1="715.077787879382" y1="0.6500000000000001" x2="742.9354059048579" y2="0.6500000000000001" stroke-width="1" stroke-dasharray="1" stroke="rgb(0, 0, 255)"/>
<line x1="716.2902234446801" y1="1.35" x2="744.1478414701561" y2="1.35" stroke-width="1" stroke-dasharray="none" stroke="rgb(0, 0, 255)"/>
<line x1="715.077787879382" y1="-1.3499999999999999" x2="742.9354059048579" y2="-1.3499999999999999" stroke-width="1" stroke-dasharray="none" stroke="rgb(0, 0, 255)"/>
<line x1="716.2902234446801" y1="-0.6500000000000001" x2="744.1478414701561" y2="-0.6500000000000001" stroke-width="1" stroke-dasharray="none" stroke="rgb(0, 0, 255)"/>
<line x1="742.9354059048579" y1="-1.35" x2="798.9975837313489" y2="-2.6999999999999997" stroke-width="1" stroke-dasharray="none" stroke="rgb(0, 0, 255)"/>
<line x1="744.1478414701561" y1="1.3499999999999999" x2="798.9975837313489" y2="-2.6999999999999997" stroke-width="1" stroke-dasharray="none" stroke="rgb(0, 0, 255)"/>
<text x="772.7851481660507" y="34.8" font-family="arial" font-size="14px" text-anchor="middle" fill="rgb(0, 0, 0)">maxpool2x2</text>
<text x="772.7851481660507" y="48.8" font-family="arial" font-size="14px" text-anchor="middle" fill="rgb(0, 0, 0)">stride (2, 2)</text>
<line x1="800.2100192966471" y1="0.32500000000000007" x2="800.2100192966471" y2="-0.6749999999999999" stroke-width="1" stroke-dasharray="none" stroke="rgb(0, 0, 255)"/>
<line x1="828.0676373221231" y1="0.32500000000000007" x2="828.0676373221231" y2="-0.6749999999999999" stroke-width="1" stroke-dasharray="1" stroke="rgb(0, 0, 255)"/>
<line x1="800.8162370792962" y1="0.675" x2="800.8162370792962" y2="-0.32500000000000007" stroke-width="1" stroke-dasharray="none" stroke="rgb(0, 0, 255)"/>
<line x1="828.6738551047722" y1="0.675" x2="828.6738551047722" y2="-0.32500000000000007" stroke-width="1" stroke-dasharray="none" stroke="rgb(0, 0, 255)"/>
<line x1="800.2100192966471" y1="0.32500000000000007" x2="800.8162370792962" y2="0.675" stroke-width="1" stroke-dasharray="none" stroke="rgb(0, 0, 255)"/>
<line x1="800.2100192966471" y1="-0.6749999999999999" x2="800.8162370792962" y2="-0.32500000000000007" stroke-width="1" stroke-dasharray="none" stroke="rgb(0, 0, 255)"/>
<line x1="828.0676373221231" y1="0.32500000000000007" x2="828.6738551047722" y2="0.675" stroke-width="1" stroke-dasharray="1" stroke="rgb(0, 0, 255)"/>
<line x1="828.0676373221231" y1="-0.6749999999999999" x2="828.6738551047722" y2="-0.32500000000000007" stroke-width="1" stroke-dasharray="none" stroke="rgb(0, 0, 255)"/>
<line x1="800.2100192966471" y1="0.32500000000000007" x2="828.0676373221231" y2="0.32500000000000007" stroke-width="1" stroke-dasharray="1" stroke="rgb(0, 0, 255)"/>
<line x1="800.8162370792962" y1="0.675" x2="828.6738551047722" y2="0.675" stroke-width="1" stroke-dasharray="none" stroke="rgb(0, 0, 255)"/>
<line x1="800.2100192966471" y1="-0.6749999999999999" x2="828.0676373221231" y2="-0.6749999999999999" stroke-width="1" stroke-dasharray="none" stroke="rgb(0, 0, 255)"/>
<line x1="800.8162370792962" y1="-0.32500000000000007" x2="828.6738551047722" y2="-0.32500000000000007" stroke-width="1" stroke-dasharray="none" stroke="rgb(0, 0, 255)"/>
<line x1="828.0676373221231" y1="-0.675" x2="881.7049440180177" y2="-2.6999999999999997" stroke-width="1" stroke-dasharray="none" stroke="rgb(0, 0, 255)"/>
<line x1="828.6738551047722" y1="0.6749999999999999" x2="881.7049440180177" y2="-2.6999999999999997" stroke-width="1" stroke-dasharray="none" stroke="rgb(0, 0, 255)"/>
<text x="855.4925084527196" y="29.4" font-family="arial" font-size="14px" text-anchor="middle" fill="rgb(0, 0, 0)">conv1x1, 512</text>
<text x="855.4925084527196" y="43.4" font-family="arial" font-size="14px" text-anchor="middle" fill="rgb(0, 0, 0)">stride (1, 1)</text>
<line x1="882.917379583316" y1="0.6500000000000001" x2="882.917379583316" y2="-1.3499999999999999" stroke-width="1" stroke-dasharray="none" stroke="rgb(0, 0, 255)"/>
<line x1="925.1416327280486" y1="0.6500000000000001" x2="925.1416327280486" y2="-1.3499999999999999" stroke-width="1" stroke-dasharray="1" stroke="rgb(0, 0, 255)"/>
<line x1="884.1298151486142" y1="1.35" x2="884.1298151486142" y2="-0.6500000000000001" stroke-width="1" stroke-dasharray="none" stroke="rgb(0, 0, 255)"/>
<line x1="926.3540682933468" y1="1.35" x2="926.3540682933468" y2="-0.6500000000000001" stroke-width="1" stroke-dasharray="none" stroke="rgb(0, 0, 255)"/>
<line x1="882.917379583316" y1="0.6500000000000001" x2="884.1298151486142" y2="1.35" stroke-width="1" stroke-dasharray="none" stroke="rgb(0, 0, 255)"/>
<line x1="882.917379583316" y1="-1.3499999999999999" x2="884.1298151486142" y2="-0.6500000000000001" stroke-width="1" stroke-dasharray="none" stroke="rgb(0, 0, 255)"/>
<line x1="925.1416327280486" y1="0.6500000000000001" x2="926.3540682933468" y2="1.35" stroke-width="1" stroke-dasharray="1" stroke="rgb(0, 0, 255)"/>
<line x1="925.1416327280486" y1="-1.3499999999999999" x2="926.3540682933468" y2="-0.6500000000000001" stroke-width="1" stroke-dasharray="none" stroke="rgb(0, 0, 255)"/>
<line x1="882.917379583316" y1="0.6500000000000001" x2="925.1416327280486" y2="0.6500000000000001" stroke-width="1" stroke-dasharray="1" stroke="rgb(0, 0, 255)"/>
<line x1="884.1298151486142" y1="1.35" x2="926.3540682933468" y2="1.35" stroke-width="1" stroke-dasharray="none" stroke="rgb(0, 0, 255)"/>
<line x1="882.917379583316" y1="-1.3499999999999999" x2="925.1416327280486" y2="-1.3499999999999999" stroke-width="1" stroke-dasharray="none" stroke="rgb(0, 0, 255)"/>
<line x1="884.1298151486142" y1="-0.6500000000000001" x2="926.3540682933468" y2="-0.6500000000000001" stroke-width="1" stroke-dasharray="none" stroke="rgb(0, 0, 255)"/>
<line x1="925.1416327280486" y1="-1.35" x2="978.1727216412942" y2="-1.3499999999999999" stroke-width="1" stroke-dasharray="none" stroke="rgb(0, 0, 255)"/>
<line x1="926.3540682933468" y1="1.3499999999999999" x2="978.1727216412942" y2="-1.3499999999999999" stroke-width="1" stroke-dasharray="none" stroke="rgb(0, 0, 255)"/>
<text x="952.5665038586451" y="29.4" font-family="arial" font-size="14px" text-anchor="middle" fill="rgb(0, 0, 0)">maxpool2x2</text>
<text x="952.5665038586451" y="43.4" font-family="arial" font-size="14px" text-anchor="middle" fill="rgb(0, 0, 0)">stride (2, 2)</text>
<text x="1047.2156281339742" y="135.4304721019039" font-family="arial" font-size="14px" text-anchor="middle" fill="rgb(0, 0, 0)">flatten</text>
<line x1="1076.2156281339742" y1="-111.43047210190387" x2="1126.2156281339742" y2="-15.999999999999998" stroke-width="1" stroke-dasharray="2" stroke="rgb(0, 0, 255)"/>
<line x1="1076.2156281339742" y1="111.43047210190387" x2="1126.2156281339742" y2="-15.999999999999998" stroke-width="1" stroke-dasharray="2" stroke="rgb(0, 0, 255)"/>
<text x="1101.2156281339742" y="135.4304721019039" font-family="arial" font-size="14px" text-anchor="middle" fill="rgb(0, 0, 0)">dense</text>
<line x1="1130.2156281339742" y1="-31.999999999999996" x2="1180.2156281339742" y2="-6.964404506368992" stroke-width="1" stroke-dasharray="2" stroke="rgb(0, 0, 255)"/>
<line x1="1130.2156281339742" y1="31.999999999999996" x2="1180.2156281339742" y2="-6.964404506368992" stroke-width="1" stroke-dasharray="2" stroke="rgb(0, 0, 255)"/>
<text x="1155.2156281339742" y="56.0" font-family="arial" font-size="14px" text-anchor="middle" fill="rgb(0, 0, 0)">dense</text>
<line x1="1184.2156281339742" y1="-13.928809012737984" x2="1234.2156281339742" y2="-1.5533580968401857" stroke-width="1" stroke-dasharray="2" stroke="rgb(0, 0, 255)"/>
<line x1="1184.2156281339742" y1="13.928809012737984" x2="1234.2156281339742" y2="-1.5533580968401857" stroke-width="1" stroke-dasharray="2" stroke="rgb(0, 0, 255)"/>
<text x="1209.2156281339742" y="37.928809012737986" font-family="arial" font-size="14px" text-anchor="middle" fill="rgb(0, 0, 0)">dense</text>
</svg>